<mxfile host="app.diagrams.net" modified="2022-12-28T11:56:16.878Z" agent="5.0 (Windows NT 6.3; Win64; x64) AppleWebKit/537.36 (KHTML, like Gecko) Chrome/108.0.0.0 Safari/537.36" etag="QR3Io3RxvYfrFJZbsOPv" version="20.7.4" type="github">
  <diagram id="R2lEEEUBdFMjLlhIrx00" name="Page-1">
    <mxGraphModel dx="1500" dy="831" grid="1" gridSize="10" guides="1" tooltips="1" connect="1" arrows="1" fold="1" page="1" pageScale="1" pageWidth="850" pageHeight="1100" math="0" shadow="0" extFonts="Permanent Marker^https://fonts.googleapis.com/css?family=Permanent+Marker">
      <root>
        <mxCell id="0" />
        <mxCell id="1" parent="0" />
        <mxCell id="bme1Dpl3zTUIBPoh-Iax-1" value="" style="whiteSpace=wrap;html=1;aspect=fixed;" vertex="1" parent="1">
          <mxGeometry x="200" y="210" width="80" height="80" as="geometry" />
        </mxCell>
        <mxCell id="bme1Dpl3zTUIBPoh-Iax-2" value="USER" style="text;html=1;strokeColor=none;fillColor=none;align=center;verticalAlign=middle;whiteSpace=wrap;rounded=0;" vertex="1" parent="1">
          <mxGeometry x="220" y="235" width="60" height="30" as="geometry" />
        </mxCell>
        <mxCell id="bme1Dpl3zTUIBPoh-Iax-3" value="Password" style="ellipse;whiteSpace=wrap;html=1;" vertex="1" parent="1">
          <mxGeometry x="80" y="100" width="80" height="50" as="geometry" />
        </mxCell>
        <mxCell id="bme1Dpl3zTUIBPoh-Iax-10" value="about" style="ellipse;whiteSpace=wrap;html=1;" vertex="1" parent="1">
          <mxGeometry x="385" y="170" width="80" height="50" as="geometry" />
        </mxCell>
        <mxCell id="bme1Dpl3zTUIBPoh-Iax-11" value="email" style="ellipse;whiteSpace=wrap;html=1;" vertex="1" parent="1">
          <mxGeometry x="10" y="170" width="80" height="50" as="geometry" />
        </mxCell>
        <mxCell id="bme1Dpl3zTUIBPoh-Iax-12" value="Name" style="ellipse;whiteSpace=wrap;html=1;" vertex="1" parent="1">
          <mxGeometry y="280" width="80" height="50" as="geometry" />
        </mxCell>
        <mxCell id="bme1Dpl3zTUIBPoh-Iax-13" value="role&lt;span style=&quot;white-space: pre;&quot;&gt;	&lt;/span&gt;" style="ellipse;whiteSpace=wrap;html=1;" vertex="1" parent="1">
          <mxGeometry x="200" y="60" width="80" height="50" as="geometry" />
        </mxCell>
        <mxCell id="bme1Dpl3zTUIBPoh-Iax-14" value="image&lt;span style=&quot;white-space: pre;&quot;&gt;	&lt;/span&gt;" style="ellipse;whiteSpace=wrap;html=1;" vertex="1" parent="1">
          <mxGeometry x="310" y="100" width="80" height="50" as="geometry" />
        </mxCell>
        <mxCell id="bme1Dpl3zTUIBPoh-Iax-15" value="id" style="ellipse;whiteSpace=wrap;html=1;" vertex="1" parent="1">
          <mxGeometry y="370" width="80" height="60" as="geometry" />
        </mxCell>
        <mxCell id="bme1Dpl3zTUIBPoh-Iax-16" value="" style="endArrow=none;html=1;rounded=0;exitX=1;exitY=0.5;exitDx=0;exitDy=0;" edge="1" parent="1" source="bme1Dpl3zTUIBPoh-Iax-12">
          <mxGeometry width="50" height="50" relative="1" as="geometry">
            <mxPoint x="40" y="250" as="sourcePoint" />
            <mxPoint x="90" y="200" as="targetPoint" />
            <Array as="points">
              <mxPoint x="200" y="250" />
            </Array>
          </mxGeometry>
        </mxCell>
        <mxCell id="bme1Dpl3zTUIBPoh-Iax-17" value="" style="endArrow=none;html=1;rounded=0;exitX=0.5;exitY=1;exitDx=0;exitDy=0;entryX=0.945;entryY=0.836;entryDx=0;entryDy=0;entryPerimeter=0;" edge="1" parent="1" source="bme1Dpl3zTUIBPoh-Iax-13" target="bme1Dpl3zTUIBPoh-Iax-3">
          <mxGeometry width="50" height="50" relative="1" as="geometry">
            <mxPoint x="400" y="330" as="sourcePoint" />
            <mxPoint x="450" y="280" as="targetPoint" />
            <Array as="points">
              <mxPoint x="240" y="210" />
            </Array>
          </mxGeometry>
        </mxCell>
        <mxCell id="bme1Dpl3zTUIBPoh-Iax-18" value="" style="endArrow=none;html=1;rounded=0;entryX=0.24;entryY=0.948;entryDx=0;entryDy=0;entryPerimeter=0;" edge="1" parent="1" source="bme1Dpl3zTUIBPoh-Iax-10" target="bme1Dpl3zTUIBPoh-Iax-14">
          <mxGeometry width="50" height="50" relative="1" as="geometry">
            <mxPoint x="400" y="330" as="sourcePoint" />
            <mxPoint x="450" y="280" as="targetPoint" />
            <Array as="points">
              <mxPoint x="280" y="250" />
            </Array>
          </mxGeometry>
        </mxCell>
        <mxCell id="bme1Dpl3zTUIBPoh-Iax-19" value="" style="endArrow=none;html=1;rounded=0;exitX=1;exitY=0;exitDx=0;exitDy=0;entryX=0;entryY=0.5;entryDx=0;entryDy=0;" edge="1" parent="1" source="bme1Dpl3zTUIBPoh-Iax-15" target="bme1Dpl3zTUIBPoh-Iax-1">
          <mxGeometry width="50" height="50" relative="1" as="geometry">
            <mxPoint x="400" y="330" as="sourcePoint" />
            <mxPoint x="190" y="260" as="targetPoint" />
          </mxGeometry>
        </mxCell>
        <mxCell id="bme1Dpl3zTUIBPoh-Iax-20" value="enable(boolean)&lt;br&gt;" style="ellipse;whiteSpace=wrap;html=1;" vertex="1" parent="1">
          <mxGeometry x="80" y="430" width="120" height="70" as="geometry" />
        </mxCell>
        <mxCell id="bme1Dpl3zTUIBPoh-Iax-23" value="" style="endArrow=none;html=1;rounded=0;exitX=0.5;exitY=1;exitDx=0;exitDy=0;" edge="1" parent="1" source="bme1Dpl3zTUIBPoh-Iax-1">
          <mxGeometry width="50" height="50" relative="1" as="geometry">
            <mxPoint x="400" y="320" as="sourcePoint" />
            <mxPoint x="240" y="290" as="targetPoint" />
            <Array as="points">
              <mxPoint x="140" y="430" />
            </Array>
          </mxGeometry>
        </mxCell>
        <mxCell id="bme1Dpl3zTUIBPoh-Iax-24" value="contact" style="whiteSpace=wrap;html=1;aspect=fixed;" vertex="1" parent="1">
          <mxGeometry x="740" y="330" width="80" height="80" as="geometry" />
        </mxCell>
        <mxCell id="bme1Dpl3zTUIBPoh-Iax-25" value="name" style="ellipse;whiteSpace=wrap;html=1;" vertex="1" parent="1">
          <mxGeometry x="630" y="150" width="70" height="50" as="geometry" />
        </mxCell>
        <mxCell id="bme1Dpl3zTUIBPoh-Iax-26" value="phone number&lt;span style=&quot;white-space: pre;&quot;&gt;	&lt;/span&gt;" style="ellipse;whiteSpace=wrap;html=1;" vertex="1" parent="1">
          <mxGeometry x="760" y="150" width="70" height="50" as="geometry" />
        </mxCell>
        <mxCell id="bme1Dpl3zTUIBPoh-Iax-27" value="" style="ellipse;whiteSpace=wrap;html=1;" vertex="1" parent="1">
          <mxGeometry x="770" y="530" width="70" height="50" as="geometry" />
        </mxCell>
        <mxCell id="bme1Dpl3zTUIBPoh-Iax-28" value="descripitino" style="ellipse;whiteSpace=wrap;html=1;" vertex="1" parent="1">
          <mxGeometry x="890" y="500" width="70" height="50" as="geometry" />
        </mxCell>
        <mxCell id="bme1Dpl3zTUIBPoh-Iax-29" value="work phone" style="ellipse;whiteSpace=wrap;html=1;" vertex="1" parent="1">
          <mxGeometry x="1000" y="430" width="70" height="50" as="geometry" />
        </mxCell>
        <mxCell id="bme1Dpl3zTUIBPoh-Iax-30" value="nickname" style="ellipse;whiteSpace=wrap;html=1;" vertex="1" parent="1">
          <mxGeometry x="990" y="320" width="70" height="50" as="geometry" />
        </mxCell>
        <mxCell id="bme1Dpl3zTUIBPoh-Iax-31" value="image" style="ellipse;whiteSpace=wrap;html=1;" vertex="1" parent="1">
          <mxGeometry x="980" y="215" width="70" height="50" as="geometry" />
        </mxCell>
        <mxCell id="bme1Dpl3zTUIBPoh-Iax-32" value="email" style="ellipse;whiteSpace=wrap;html=1;" vertex="1" parent="1">
          <mxGeometry x="890" y="150" width="70" height="50" as="geometry" />
        </mxCell>
        <mxCell id="bme1Dpl3zTUIBPoh-Iax-33" value="" style="endArrow=none;html=1;rounded=0;entryX=0.5;entryY=1;entryDx=0;entryDy=0;exitX=0;exitY=1;exitDx=0;exitDy=0;" edge="1" parent="1" source="bme1Dpl3zTUIBPoh-Iax-32" target="bme1Dpl3zTUIBPoh-Iax-26">
          <mxGeometry width="50" height="50" relative="1" as="geometry">
            <mxPoint x="620" y="320" as="sourcePoint" />
            <mxPoint x="670" y="270" as="targetPoint" />
            <Array as="points">
              <mxPoint x="795" y="330" />
              <mxPoint x="780" y="330" />
            </Array>
          </mxGeometry>
        </mxCell>
        <mxCell id="bme1Dpl3zTUIBPoh-Iax-34" value="" style="endArrow=none;html=1;rounded=0;entryX=0.5;entryY=0;entryDx=0;entryDy=0;" edge="1" parent="1" target="bme1Dpl3zTUIBPoh-Iax-24">
          <mxGeometry width="50" height="50" relative="1" as="geometry">
            <mxPoint x="780" y="330" as="sourcePoint" />
            <mxPoint x="670" y="270" as="targetPoint" />
            <Array as="points">
              <mxPoint x="670" y="200" />
            </Array>
          </mxGeometry>
        </mxCell>
        <mxCell id="bme1Dpl3zTUIBPoh-Iax-35" value="" style="endArrow=none;html=1;rounded=0;entryX=0;entryY=0.5;entryDx=0;entryDy=0;" edge="1" parent="1" target="bme1Dpl3zTUIBPoh-Iax-30">
          <mxGeometry width="50" height="50" relative="1" as="geometry">
            <mxPoint x="820" y="370" as="sourcePoint" />
            <mxPoint x="670" y="270" as="targetPoint" />
          </mxGeometry>
        </mxCell>
        <mxCell id="bme1Dpl3zTUIBPoh-Iax-36" value="" style="endArrow=none;html=1;rounded=0;entryX=0;entryY=1;entryDx=0;entryDy=0;" edge="1" parent="1" target="bme1Dpl3zTUIBPoh-Iax-31">
          <mxGeometry width="50" height="50" relative="1" as="geometry">
            <mxPoint x="820" y="360" as="sourcePoint" />
            <mxPoint x="670" y="270" as="targetPoint" />
          </mxGeometry>
        </mxCell>
        <mxCell id="bme1Dpl3zTUIBPoh-Iax-37" value="" style="endArrow=none;html=1;rounded=0;" edge="1" parent="1" target="bme1Dpl3zTUIBPoh-Iax-29">
          <mxGeometry width="50" height="50" relative="1" as="geometry">
            <mxPoint x="820" y="380" as="sourcePoint" />
            <mxPoint x="670" y="270" as="targetPoint" />
          </mxGeometry>
        </mxCell>
        <mxCell id="bme1Dpl3zTUIBPoh-Iax-38" value="" style="endArrow=none;html=1;rounded=0;entryX=0.286;entryY=0.068;entryDx=0;entryDy=0;entryPerimeter=0;" edge="1" parent="1" source="bme1Dpl3zTUIBPoh-Iax-24" target="bme1Dpl3zTUIBPoh-Iax-28">
          <mxGeometry width="50" height="50" relative="1" as="geometry">
            <mxPoint x="620" y="320" as="sourcePoint" />
            <mxPoint x="670" y="270" as="targetPoint" />
          </mxGeometry>
        </mxCell>
        <mxCell id="bme1Dpl3zTUIBPoh-Iax-39" value="" style="endArrow=none;html=1;rounded=0;entryX=0.5;entryY=0;entryDx=0;entryDy=0;" edge="1" parent="1" source="bme1Dpl3zTUIBPoh-Iax-24" target="bme1Dpl3zTUIBPoh-Iax-27">
          <mxGeometry width="50" height="50" relative="1" as="geometry">
            <mxPoint x="620" y="320" as="sourcePoint" />
            <mxPoint x="670" y="270" as="targetPoint" />
          </mxGeometry>
        </mxCell>
        <mxCell id="bme1Dpl3zTUIBPoh-Iax-40" value="has" style="rhombus;whiteSpace=wrap;html=1;" vertex="1" parent="1">
          <mxGeometry x="425" y="490" width="80" height="80" as="geometry" />
        </mxCell>
        <mxCell id="bme1Dpl3zTUIBPoh-Iax-41" value="" style="endArrow=none;html=1;rounded=0;exitX=1;exitY=0.5;exitDx=0;exitDy=0;entryX=0;entryY=0.5;entryDx=0;entryDy=0;" edge="1" parent="1" source="bme1Dpl3zTUIBPoh-Iax-40" target="bme1Dpl3zTUIBPoh-Iax-24">
          <mxGeometry width="50" height="50" relative="1" as="geometry">
            <mxPoint x="620" y="310" as="sourcePoint" />
            <mxPoint x="670" y="260" as="targetPoint" />
          </mxGeometry>
        </mxCell>
        <mxCell id="bme1Dpl3zTUIBPoh-Iax-42" value="" style="endArrow=none;html=1;rounded=0;" edge="1" parent="1" target="bme1Dpl3zTUIBPoh-Iax-40">
          <mxGeometry width="50" height="50" relative="1" as="geometry">
            <mxPoint x="280" y="290" as="sourcePoint" />
            <mxPoint x="670" y="260" as="targetPoint" />
          </mxGeometry>
        </mxCell>
      </root>
    </mxGraphModel>
  </diagram>
</mxfile>
